<?xml version="1.0" encoding="UTF-8"?>
<svg width="34px" height="33px" viewBox="0 0 34 33" version="1.1" xmlns="http://www.w3.org/2000/svg" xmlns:xlink="http://www.w3.org/1999/xlink" xmlns:sketch="http://www.bohemiancoding.com/sketch/ns">
    <!-- Generator: Sketch 3.3 (11970) - http://www.bohemiancoding.com/sketch -->
    <title>Untitled</title>
    <desc>Created with Sketch.</desc>
    <defs></defs>
    <g id="Page-1" stroke="none" stroke-width="1" fill="none" fill-rule="evenodd" sketch:type="MSPage">
        <g id="flickr" sketch:type="MSLayerGroup" fill="#62AFFE">
            <path d="M16.903,0.067 C7.954,0.067 0.699,7.321 0.699,16.27 C0.699,25.219 7.953,32.473 16.903,32.473 C25.851,32.473 33.106,25.219 33.106,16.27 C33.106,7.321 25.852,0.067 16.903,0.067 L16.903,0.067 Z M12.227,19.911 C10.215,19.911 8.585,18.28 8.585,16.269 C8.585,14.262 10.215,12.63 12.227,12.63 C14.225,12.63 15.855,14.262 15.855,16.269 C15.855,18.279 14.225,19.911 12.227,19.911 L12.227,19.911 Z M21.576,19.911 C19.568,19.911 17.936,18.28 17.936,16.269 C17.936,14.262 19.568,12.63 21.576,12.63 C23.594,12.63 25.218,14.262 25.218,16.269 C25.218,18.279 23.594,19.911 21.576,19.911 L21.576,19.911 Z" id="Shape" sketch:type="MSShapeGroup"></path>
        </g>
    </g>
</svg>