<?xml version="1.0" encoding="UTF-8"?>
<svg width="34px" height="34px" viewBox="0 0 34 34" version="1.1" xmlns="http://www.w3.org/2000/svg" xmlns:xlink="http://www.w3.org/1999/xlink" xmlns:sketch="http://www.bohemiancoding.com/sketch/ns">
    <!-- Generator: Sketch 3.3 (11970) - http://www.bohemiancoding.com/sketch -->
    <title>Untitled</title>
    <desc>Created with Sketch.</desc>
    <defs></defs>
    <g id="Page-1" stroke="none" stroke-width="1" fill="none" fill-rule="evenodd" sketch:type="MSPage">
        <g id="github" sketch:type="MSLayerGroup" fill="#62AFFE">
            <path d="M16.94,0.699 C7.991,0.699 0.737,7.953 0.737,16.902 C0.737,25.851 7.991,33.105 16.94,33.105 C25.888,33.105 33.143,25.851 33.143,16.902 C33.143,7.953 25.888,0.699 16.94,0.699 L16.94,0.699 Z M19.115,19.934 C19.455,20.225 19.757,20.802 19.757,21.683 C19.757,22.946 19.745,23.964 19.745,24.275 C19.745,24.526 15.062,24.524 15.062,24.275 C15.062,24.051 15.054,23.456 15.049,22.668 C12.421,23.239 11.866,21.402 11.866,21.402 C11.437,20.31 10.818,20.02 10.818,20.02 C9.96,19.433 10.883,19.445 10.883,19.445 C11.831,19.511 12.33,20.418 12.33,20.418 C13.173,21.861 14.541,21.446 15.079,21.202 C15.165,20.593 15.409,20.176 15.678,19.94 C13.581,19.702 11.376,18.892 11.376,15.271 C11.376,14.24 11.744,13.396 12.349,12.736 C12.252,12.497 11.928,11.537 12.442,10.236 C12.442,10.236 13.235,9.982 15.04,11.204 C15.793,10.994 16.601,10.889 17.405,10.886 C18.208,10.889 19.016,10.995 19.77,11.204 C21.573,9.981 22.364,10.236 22.364,10.236 C22.879,11.536 22.556,12.497 22.458,12.736 C23.063,13.396 23.429,14.239 23.429,15.271 C23.429,18.9 21.22,19.698 19.116,19.932 L19.115,19.934 Z" id="Shape" sketch:type="MSShapeGroup"></path>
        </g>
    </g>
</svg>