<?xml version="1.0" encoding="UTF-8"?>
<svg width="34px" height="34px" viewBox="0 0 34 34" version="1.1" xmlns="http://www.w3.org/2000/svg" xmlns:xlink="http://www.w3.org/1999/xlink" xmlns:sketch="http://www.bohemiancoding.com/sketch/ns">
    <!-- Generator: Sketch 3.3 (11970) - http://www.bohemiancoding.com/sketch -->
    <title>Untitled</title>
    <desc>Created with Sketch.</desc>
    <defs></defs>
    <g id="Page-1" stroke="none" stroke-width="1" fill="none" fill-rule="evenodd" sketch:type="MSPage">
        <g id="pinterest" sketch:type="MSLayerGroup" fill="#62AFFE">
            <path d="M16.903,0.699 C7.954,0.699 0.699,7.953 0.699,16.902 C0.699,25.851 7.953,33.105 16.903,33.105 C25.851,33.105 33.106,25.851 33.106,16.902 C33.106,7.953 25.852,0.699 16.903,0.699 L16.903,0.699 Z M17.736,20.972 C16.757,20.894 16.334,20.408 15.561,19.939 C15.135,22.173 14.62,24.315 13.074,25.431 C12.595,22.051 13.772,19.51 14.318,16.819 C13.383,15.257 14.434,12.106 16.39,12.886 C18.806,13.84 14.3,18.705 17.326,19.306 C20.49,19.95 21.779,13.84 19.815,11.84 C16.988,8.976 11.577,11.779 12.243,15.892 C12.402,16.892 13.442,17.196 12.659,18.59 C10.846,18.186 10.312,16.758 10.37,14.846 C10.488,11.729 13.176,9.555 15.874,9.246 C19.283,8.867 22.487,10.501 22.924,13.709 C23.422,17.332 21.388,21.249 17.737,20.972 L17.736,20.972 Z" id="Shape" sketch:type="MSShapeGroup"></path>
        </g>
    </g>
</svg>