<?xml version="1.0" encoding="UTF-8"?>
<svg width="33px" height="34px" viewBox="0 0 33 34" version="1.1" xmlns="http://www.w3.org/2000/svg" xmlns:xlink="http://www.w3.org/1999/xlink" xmlns:sketch="http://www.bohemiancoding.com/sketch/ns">
    <!-- Generator: Sketch 3.3 (11970) - http://www.bohemiancoding.com/sketch -->
    <title>Untitled</title>
    <desc>Created with Sketch.</desc>
    <defs></defs>
    <g id="Page-1" stroke="none" stroke-width="1" fill="none" fill-rule="evenodd" sketch:type="MSPage">
        <g id="twitter" sketch:type="MSLayerGroup" fill="#62AFFE">
            <path d="M16.6855,0.913 C7.7365,0.913 0.4815,8.167 0.4815,17.116 C0.4815,26.065 7.7355,33.319 16.6855,33.319 C25.6335,33.319 32.8885,26.065 32.8885,17.116 C32.8885,8.167 25.6345,0.913 16.6855,0.913 L16.6855,0.913 Z M23.208,13.773 C23.216,13.916 23.221,14.058 23.221,14.208 C23.221,18.656 19.834,23.788 13.639,23.788 C11.732,23.788 9.965,23.239 8.474,22.277 C8.739,22.311 9.003,22.323 9.279,22.323 C10.854,22.323 12.308,21.784 13.454,20.887 C11.982,20.855 10.745,19.875 10.309,18.541 C10.513,18.586 10.73,18.599 10.946,18.599 C11.256,18.599 11.555,18.563 11.83,18.487 C10.3,18.174 9.133,16.816 9.133,15.179 L9.133,15.142 C9.582,15.39 10.113,15.547 10.654,15.558 C9.759,14.959 9.158,13.926 9.158,12.759 C9.158,12.138 9.329,11.562 9.618,11.058 C11.282,13.102 13.758,14.443 16.557,14.58 C16.502,14.336 16.479,14.079 16.479,13.812 C16.479,11.957 17.98,10.444 19.843,10.444 C20.804,10.444 21.685,10.852 22.304,11.509 C23.069,11.356 23.788,11.081 24.439,10.694 C24.188,11.483 23.655,12.138 22.957,12.555 C23.635,12.468 24.285,12.292 24.896,12.023 C24.437,12.705 23.877,13.297 23.208,13.772 L23.208,13.773 Z" id="Shape" sketch:type="MSShapeGroup"></path>
        </g>
    </g>
</svg>